<svg width="686" height="55" viewBox="0 0 686 55" fill="none" xmlns="http://www.w3.org/2000/svg">
<path d="M56.3726 12.944C54.5166 17.744 52.3406 22.768 49.8446 28.016C47.4126 33.2 44.5006 38.352 41.1086 43.472C40.1486 44.944 39.0606 45.68 37.8446 45.68C37.0766 45.68 36.4366 45.52 35.9246 45.2C35.4126 44.816 34.9646 44.336 34.5806 43.76C32.9166 41.2 31.4126 38.48 30.0686 35.6C28.7246 32.72 27.4126 29.456 26.1326 25.808C24.2766 29.072 22.1966 32.368 19.8926 35.696C17.6526 39.024 15.1886 42.128 12.5006 45.008C11.9886 45.584 11.4446 45.968 10.8686 46.16C10.3566 46.352 9.94063 46.416 9.62063 46.352C8.27663 46.16 7.22063 45.328 6.45263 43.856C4.08463 39.44 2.48463 34.576 1.65263 29.264C0.820625 23.952 0.372625 18.512 0.308625 12.944C0.308625 12.432 0.500625 11.92 0.884625 11.408C1.26863 10.896 1.84463 10.672 2.61263 10.736C3.76463 10.8 4.66063 11.248 5.30063 12.08C5.94063 12.848 6.32463 13.808 6.45263 14.96C6.58063 16.56 6.74063 18.384 6.93263 20.432C7.12463 22.416 7.38063 24.464 7.70063 26.576C8.02063 28.688 8.43663 30.736 8.94863 32.72C9.46063 34.704 10.1006 36.432 10.8686 37.904C11.8286 36.688 12.8526 35.344 13.9406 33.872C15.0286 32.4 16.0846 30.864 17.1086 29.264C18.1966 27.664 19.2206 26.064 20.1806 24.464C21.1406 22.8 22.0046 21.168 22.7726 19.568C23.2846 18.48 23.9246 17.776 24.6926 17.456C25.4606 17.136 26.0686 16.976 26.5166 16.976C28.4366 16.976 29.7486 17.904 30.4526 19.76C31.5406 22.448 32.6286 25.296 33.7166 28.304C34.8686 31.312 36.1166 34.16 37.4606 36.848C38.6126 35.056 39.7966 33.04 41.0126 30.8C42.2286 28.56 43.4126 26.288 44.5646 23.984C45.7166 21.616 46.8046 19.248 47.8286 16.88C48.9166 14.512 49.8766 12.272 50.7086 10.16C51.0286 9.392 51.5726 8.752 52.3406 8.24C53.1086 7.728 53.9406 7.76 54.8366 8.336C55.5406 8.784 56.0206 9.52 56.2766 10.544C56.5966 11.504 56.6286 12.304 56.3726 12.944ZM86.3711 27.44C83.8751 28.912 81.1871 30.064 78.3071 30.896C75.4271 31.664 72.3231 32.048 68.9951 32.048C69.1231 34.288 69.7631 36.08 70.9151 37.424C72.0671 38.704 73.5071 39.472 75.2351 39.728C76.2591 39.856 77.2831 39.824 78.3071 39.632C79.3951 39.44 80.3871 39.152 81.2831 38.768C82.2431 38.32 83.1071 37.84 83.8751 37.328C84.6431 36.816 85.3151 36.304 85.8911 35.792C86.4671 35.28 87.0751 34.96 87.7151 34.832C88.3551 34.64 88.8351 34.608 89.1551 34.736C90.0511 35.056 90.3711 36.016 90.1151 37.616C89.0911 39.664 87.6191 41.424 85.6991 42.896C83.7791 44.304 81.6351 45.2 79.2671 45.584C77.2191 45.968 75.1071 45.872 72.9311 45.296C70.7551 44.72 68.8031 43.6 67.0751 41.936C65.6031 40.464 64.4831 38.736 63.7151 36.752C62.9471 34.768 62.4671 32.72 62.2751 30.608C62.0831 28.624 62.2431 26.736 62.7551 24.944C63.3311 23.152 64.1951 21.584 65.3471 20.24C66.4991 18.832 67.9391 17.68 69.6671 16.784C71.3951 15.888 73.4111 15.376 75.7151 15.248C78.4671 15.056 80.9631 15.568 83.2031 16.784C85.4431 18 87.0111 19.696 87.9071 21.872C88.4191 23.088 88.5471 24.144 88.2911 25.04C88.0991 25.936 87.4591 26.736 86.3711 27.44ZM75.3311 20.912C74.6911 21.04 73.9871 21.264 73.2191 21.584C72.5151 21.904 71.8431 22.32 71.2031 22.832C70.6271 23.28 70.0831 23.824 69.5711 24.464C69.1231 25.04 68.8671 25.712 68.8031 26.48C69.8911 26.48 71.0751 26.384 72.3551 26.192C73.6991 26 74.9791 25.776 76.1951 25.52C77.4751 25.2 78.6271 24.848 79.6511 24.464C80.7391 24.08 81.6351 23.664 82.3391 23.216C81.8271 22 80.8671 21.264 79.4591 21.008C78.1151 20.688 76.7391 20.656 75.3311 20.912ZM104.859 5.07199C105.179 12.048 105.723 19.28 106.491 26.768C107.259 34.192 108.091 41.296 108.987 48.08C109.179 50.896 108.411 52.336 106.683 52.4C106.299 52.4 105.915 52.272 105.531 52.016C105.147 51.696 104.795 51.312 104.475 50.864C104.155 50.416 103.835 49.936 103.515 49.424C103.259 48.912 103.099 48.464 103.035 48.08C102.523 44.816 102.043 41.36 101.595 37.712C101.147 34.064 100.731 30.416 100.347 26.768C100.027 23.056 99.7394 19.44 99.4834 15.92C99.2274 12.4 99.0674 9.168 99.0034 6.224C99.1314 4.688 99.3554 3.408 99.6754 2.384C99.9954 1.296 100.667 0.783998 101.691 0.847998C102.779 0.911997 103.547 1.36 103.995 2.192C104.507 2.96 104.795 3.92 104.859 5.07199ZM138.938 25.328C138.49 25.584 137.946 25.68 137.306 25.616C136.666 25.488 136.122 25.072 135.674 24.368C134.65 23.024 133.402 22.352 131.93 22.352C130.586 22.352 129.37 22.672 128.282 23.312C127.258 23.888 126.33 24.688 125.498 25.712C124.73 26.672 124.09 27.76 123.578 28.976C123.066 30.192 122.714 31.408 122.522 32.624C122.202 34.864 122.586 36.752 123.674 38.288C124.762 39.824 126.458 40.592 128.762 40.592C130.618 40.656 132.698 40.304 135.002 39.536C137.37 38.704 139.578 37.648 141.626 36.368C142.522 35.984 143.354 35.76 144.122 35.696C144.89 35.632 145.53 36.016 146.042 36.848C146.682 37.872 146.522 38.928 145.562 40.016C144.602 41.04 143.322 41.968 141.722 42.8C140.122 43.696 138.426 44.496 136.634 45.2C134.906 45.84 133.146 46.32 131.354 46.64C129.562 46.896 127.77 46.896 125.978 46.64C124.25 46.384 122.618 45.776 121.082 44.816C118.65 43.152 117.178 40.784 116.666 37.712C116.154 34.64 116.378 31.472 117.338 28.208C117.722 26.992 118.266 25.776 118.97 24.56C119.674 23.28 120.506 22.128 121.466 21.104C122.49 20.08 123.61 19.216 124.826 18.512C126.042 17.744 127.386 17.232 128.858 16.976C131.226 16.592 133.498 16.848 135.674 17.744C137.85 18.576 139.29 20.144 139.994 22.448C140.122 22.96 140.122 23.504 139.994 24.08C139.866 24.592 139.514 25.008 138.938 25.328ZM173.719 16.496C175.639 17.2 177.239 18.256 178.519 19.664C179.863 21.072 180.887 22.672 181.591 24.464C182.295 26.192 182.679 27.984 182.743 29.84C182.871 31.696 182.679 33.424 182.167 35.024C181.463 36.816 180.567 38.576 179.479 40.304C178.391 42.032 177.143 43.568 175.735 44.912C174.327 46.256 172.727 47.344 170.935 48.176C169.143 49.008 167.159 49.424 164.983 49.424C162.359 49.424 160.151 48.816 158.359 47.6C156.567 46.384 155.159 44.816 154.135 42.896C153.111 40.976 152.439 38.8 152.119 36.368C151.863 33.936 151.927 31.504 152.311 29.072C152.567 27.28 152.983 25.552 153.559 23.888C154.199 22.16 154.999 20.656 155.959 19.376C156.919 18.032 158.007 16.944 159.223 16.112C160.503 15.28 161.943 14.864 163.543 14.864C164.439 14.864 165.559 15.056 166.903 15.44C168.247 15.76 169.495 16.24 170.647 16.88C171.479 16.112 172.503 15.984 173.719 16.496ZM170.071 23.504C169.367 23.056 168.535 22.48 167.575 21.776C166.679 21.008 165.879 20.624 165.175 20.624C164.407 20.624 163.639 20.976 162.871 21.68C162.167 22.384 161.527 23.216 160.951 24.176C160.439 25.072 159.991 26 159.607 26.96C159.223 27.92 158.967 28.688 158.839 29.264C158.647 30.224 158.519 31.376 158.455 32.72C158.391 34.064 158.487 35.408 158.743 36.752C158.999 38.032 159.479 39.216 160.183 40.304C160.951 41.328 162.071 42.064 163.543 42.512C164.439 42.768 165.495 42.768 166.711 42.512C167.927 42.192 169.111 41.648 170.263 40.88C171.479 40.112 172.599 39.088 173.623 37.808C174.711 36.528 175.543 35.056 176.119 33.392C176.759 31.536 176.759 29.616 176.119 27.632C175.543 25.584 174.327 24.112 172.471 23.216C172.023 23.536 171.575 23.696 171.127 23.696C170.679 23.696 170.327 23.632 170.071 23.504ZM196.212 18.992C196.276 20.016 196.372 21.296 196.5 22.832C196.692 24.304 196.884 25.872 197.076 27.536C197.268 29.136 197.46 30.736 197.652 32.336C197.908 33.936 198.132 35.408 198.324 36.752C199.028 35.344 199.892 33.616 200.916 31.568C201.94 29.52 202.996 27.568 204.084 25.712C205.236 23.792 206.388 22.192 207.54 20.912C208.756 19.568 209.844 18.896 210.804 18.896C211.828 18.896 212.756 19.408 213.588 20.432C214.484 21.392 215.252 22.576 215.892 23.984C216.532 25.392 217.076 26.896 217.524 28.496C218.036 30.096 218.452 31.504 218.772 32.72C219.028 31.888 219.348 30.96 219.732 29.936C220.18 28.848 220.628 27.76 221.076 26.672C221.588 25.52 222.132 24.4 222.708 23.312C223.348 22.224 224.02 21.264 224.724 20.432C225.556 19.536 226.452 18.896 227.412 18.512C228.372 18.064 229.076 17.84 229.524 17.84C230.1 17.84 230.772 18.032 231.54 18.416C232.372 18.736 233.204 19.184 234.036 19.76C234.868 20.336 235.636 21.04 236.34 21.872C237.108 22.64 237.716 23.44 238.164 24.272C239.06 26 239.764 27.888 240.276 29.936C240.852 31.984 241.268 33.936 241.524 35.792C241.78 37.648 241.94 39.312 242.004 40.784C242.132 42.192 242.228 43.184 242.292 43.76C242.292 44.592 242.196 45.232 242.004 45.68C241.812 46.064 241.46 46.384 240.948 46.64C240.244 46.96 239.636 47.088 239.124 47.024C238.612 46.896 238.196 46.672 237.876 46.352C237.556 46.032 237.3 45.68 237.108 45.296C236.916 44.848 236.788 44.464 236.724 44.144C236.532 42.672 236.308 41.168 236.052 39.632C235.86 38.096 235.636 36.624 235.38 35.216C235.124 33.744 234.804 32.4 234.42 31.184C234.1 29.904 233.748 28.784 233.364 27.824C233.236 27.568 233.012 27.248 232.692 26.864C232.436 26.416 232.116 26 231.732 25.616C231.412 25.232 231.092 24.912 230.772 24.656C230.452 24.4 230.228 24.24 230.1 24.176C229.46 24.176 228.788 24.784 228.084 26C227.38 27.152 226.708 28.56 226.068 30.224C225.428 31.888 224.82 33.648 224.244 35.504C223.732 37.296 223.348 38.832 223.092 40.112C223.092 41.776 222.772 43.024 222.132 43.856C221.492 44.624 220.82 45.008 220.116 45.008C219.412 45.008 218.644 44.752 217.812 44.24C217.044 43.664 216.532 43.024 216.276 42.32C215.892 41.296 215.476 40.144 215.028 38.864C214.58 37.584 214.1 36.272 213.588 34.928C213.14 33.584 212.66 32.272 212.148 30.992C211.7 29.712 211.252 28.56 210.804 27.536C209.908 28.752 209.012 30.096 208.116 31.568C207.284 33.04 206.452 34.544 205.62 36.08C204.852 37.616 204.084 39.152 203.316 40.688C202.612 42.16 201.94 43.472 201.3 44.624C200.852 45.328 200.372 45.968 199.86 46.544C199.348 47.056 198.74 47.312 198.036 47.312C197.524 47.312 196.98 47.088 196.404 46.64C195.828 46.128 195.284 45.52 194.772 44.816C194.26 44.112 193.78 43.312 193.332 42.416C192.948 41.52 192.66 40.624 192.468 39.728C191.956 36.976 191.508 33.968 191.124 30.704C190.804 27.376 190.484 24.144 190.164 21.008C190.1 19.92 190.228 18.928 190.548 18.032C190.932 17.072 191.636 16.432 192.66 16.112C193.748 15.92 194.58 16.08 195.156 16.592C195.732 17.104 196.084 17.904 196.212 18.992ZM273.309 27.44C270.813 28.912 268.125 30.064 265.245 30.896C262.365 31.664 259.261 32.048 255.933 32.048C256.061 34.288 256.701 36.08 257.853 37.424C259.005 38.704 260.445 39.472 262.173 39.728C263.197 39.856 264.221 39.824 265.245 39.632C266.333 39.44 267.325 39.152 268.221 38.768C269.181 38.32 270.045 37.84 270.813 37.328C271.581 36.816 272.253 36.304 272.829 35.792C273.405 35.28 274.013 34.96 274.653 34.832C275.293 34.64 275.773 34.608 276.093 34.736C276.989 35.056 277.309 36.016 277.053 37.616C276.029 39.664 274.557 41.424 272.637 42.896C270.717 44.304 268.573 45.2 266.205 45.584C264.157 45.968 262.045 45.872 259.869 45.296C257.693 44.72 255.741 43.6 254.013 41.936C252.541 40.464 251.421 38.736 250.653 36.752C249.885 34.768 249.405 32.72 249.213 30.608C249.021 28.624 249.181 26.736 249.693 24.944C250.269 23.152 251.133 21.584 252.285 20.24C253.437 18.832 254.877 17.68 256.605 16.784C258.333 15.888 260.349 15.376 262.653 15.248C265.405 15.056 267.901 15.568 270.141 16.784C272.381 18 273.949 19.696 274.845 21.872C275.357 23.088 275.485 24.144 275.229 25.04C275.037 25.936 274.397 26.736 273.309 27.44ZM262.269 20.912C261.629 21.04 260.925 21.264 260.157 21.584C259.453 21.904 258.781 22.32 258.141 22.832C257.565 23.28 257.021 23.824 256.509 24.464C256.061 25.04 255.805 25.712 255.741 26.48C256.829 26.48 258.013 26.384 259.293 26.192C260.637 26 261.917 25.776 263.133 25.52C264.413 25.2 265.565 24.848 266.589 24.464C267.677 24.08 268.573 23.664 269.277 23.216C268.765 22 267.805 21.264 266.397 21.008C265.053 20.688 263.677 20.656 262.269 20.912ZM332.431 24.272C333.647 24.208 334.863 24.496 336.079 25.136C337.295 25.776 337.903 26.768 337.903 28.112C337.775 29.2 337.167 29.904 336.079 30.224C335.055 30.48 334.223 30.608 333.583 30.608C332.303 30.608 330.927 30.64 329.455 30.704C327.983 30.768 326.479 30.864 324.943 30.992C324.815 33.104 324.687 35.088 324.559 36.944C324.495 38.8 324.431 40.464 324.367 41.936C324.303 43.344 324.271 44.496 324.271 45.392C324.271 46.288 324.303 46.768 324.367 46.832C325.775 46.576 327.279 46.16 328.879 45.584C330.543 44.944 332.175 44.272 333.775 43.568C335.439 42.8 337.039 42.032 338.575 41.264C340.175 40.432 341.679 39.664 343.087 38.96C343.727 38.64 344.303 38.544 344.815 38.672C345.391 38.8 345.743 39.088 345.871 39.536C345.999 40.24 345.903 41.104 345.583 42.128C345.263 43.152 344.687 44.08 343.855 44.912C342.895 45.68 341.615 46.576 340.015 47.6C338.479 48.56 336.815 49.488 335.023 50.384C333.231 51.28 331.407 52.08 329.551 52.784C327.759 53.424 326.159 53.808 324.751 53.936C322.639 54.128 321.039 53.552 319.951 52.208C318.863 50.864 318.255 49.168 318.127 47.12C317.999 45.072 317.967 42.704 318.031 40.016C318.159 37.328 318.287 34.48 318.415 31.472C317.199 31.6 316.015 31.728 314.863 31.856C313.775 31.92 312.719 32.016 311.695 32.144C310.863 32.144 309.935 31.952 308.911 31.568C307.951 31.184 307.471 30.448 307.471 29.36C307.471 28.976 307.631 28.464 307.951 27.824C308.271 27.184 308.975 26.704 310.063 26.384C312.687 25.936 315.599 25.552 318.799 25.232C318.991 22.224 319.215 19.312 319.471 16.496C319.727 13.68 319.951 11.12 320.143 8.816C320.207 8.048 320.431 7.376 320.815 6.8C321.199 6.224 321.615 5.936 322.063 5.936C323.151 5.872 324.175 6.16 325.135 6.8C326.159 7.376 326.671 8.048 326.671 8.816C326.415 10.992 326.159 13.456 325.903 16.208C325.711 18.96 325.519 21.776 325.327 24.656C326.607 24.528 327.823 24.464 328.975 24.464C330.191 24.4 331.343 24.336 332.431 24.272ZM371.907 16.496C373.827 17.2 375.427 18.256 376.707 19.664C378.051 21.072 379.075 22.672 379.779 24.464C380.483 26.192 380.867 27.984 380.931 29.84C381.059 31.696 380.867 33.424 380.355 35.024C379.651 36.816 378.755 38.576 377.667 40.304C376.579 42.032 375.331 43.568 373.923 44.912C372.515 46.256 370.915 47.344 369.123 48.176C367.331 49.008 365.347 49.424 363.171 49.424C360.547 49.424 358.339 48.816 356.547 47.6C354.755 46.384 353.347 44.816 352.323 42.896C351.299 40.976 350.627 38.8 350.307 36.368C350.051 33.936 350.115 31.504 350.499 29.072C350.755 27.28 351.171 25.552 351.747 23.888C352.387 22.16 353.187 20.656 354.147 19.376C355.107 18.032 356.195 16.944 357.411 16.112C358.691 15.28 360.131 14.864 361.731 14.864C362.627 14.864 363.747 15.056 365.091 15.44C366.435 15.76 367.683 16.24 368.835 16.88C369.667 16.112 370.691 15.984 371.907 16.496ZM368.259 23.504C367.555 23.056 366.723 22.48 365.763 21.776C364.867 21.008 364.067 20.624 363.363 20.624C362.595 20.624 361.827 20.976 361.059 21.68C360.355 22.384 359.715 23.216 359.139 24.176C358.627 25.072 358.179 26 357.795 26.96C357.411 27.92 357.155 28.688 357.027 29.264C356.835 30.224 356.707 31.376 356.643 32.72C356.579 34.064 356.675 35.408 356.931 36.752C357.187 38.032 357.667 39.216 358.371 40.304C359.139 41.328 360.259 42.064 361.731 42.512C362.627 42.768 363.683 42.768 364.899 42.512C366.115 42.192 367.299 41.648 368.451 40.88C369.667 40.112 370.787 39.088 371.811 37.808C372.899 36.528 373.731 35.056 374.307 33.392C374.947 31.536 374.947 29.616 374.307 27.632C373.731 25.584 372.515 24.112 370.659 23.216C370.211 23.536 369.763 23.696 369.315 23.696C368.867 23.696 368.515 23.632 368.259 23.504ZM452.409 10.736C451.961 16.176 451.417 21.744 450.777 27.44C450.201 33.072 449.401 38.384 448.377 43.376C448.121 44.592 447.769 45.456 447.321 45.968C446.873 46.48 446.233 46.832 445.401 47.024C444.697 47.152 443.705 46.928 442.425 46.352C441.209 45.776 440.185 44.944 439.353 43.856C438.265 42.384 437.081 40.784 435.801 39.056C434.585 37.264 433.241 35.472 431.769 33.68C430.361 31.824 428.857 30 427.257 28.208C425.721 26.416 424.089 24.752 422.361 23.216C422.169 27.44 422.009 31.632 421.881 35.792C421.753 39.888 421.753 44.016 421.881 48.176C421.881 48.752 421.369 49.04 420.345 49.04C419.129 49.04 418.137 48.432 417.369 47.216C416.601 45.936 416.153 44.656 416.025 43.376C415.833 42.096 415.737 40.272 415.737 37.904C415.737 35.472 415.769 32.944 415.833 30.32C415.961 27.696 416.089 25.168 416.217 22.736C416.345 20.304 416.473 18.384 416.601 16.976C416.729 15.44 417.081 14.32 417.657 13.616C418.297 12.912 418.905 12.592 419.481 12.656C420.761 12.784 421.593 13.168 421.977 13.808C422.425 14.384 422.681 15.12 422.745 16.016C425.049 17.68 427.161 19.472 429.081 21.392C431.065 23.312 432.857 25.264 434.457 27.248C436.121 29.232 437.625 31.216 438.969 33.2C440.377 35.12 441.689 36.88 442.905 38.48C443.673 34.64 444.281 30.352 444.729 25.616C445.241 20.88 445.753 15.92 446.265 10.736C446.201 10.096 446.585 9.488 447.417 8.912C448.249 8.272 449.017 7.984 449.721 8.048C451.513 8.176 452.409 9.072 452.409 10.736ZM493.587 29.744C493.203 31.536 492.499 33.264 491.475 34.928C490.515 36.528 489.395 38.032 488.115 39.44C486.835 40.848 485.427 42.064 483.891 43.088C482.419 44.112 480.915 44.912 479.379 45.488C476.563 46.512 473.747 46.864 470.931 46.544C468.179 46.16 465.715 44.88 463.539 42.704C462.067 40.912 461.011 38.896 460.371 36.656C459.795 34.416 459.507 32.144 459.507 29.84C459.571 27.472 459.891 25.2 460.467 23.024C461.107 20.848 461.907 18.896 462.867 17.168C464.019 15.12 465.395 13.424 466.995 12.08C468.595 10.736 470.355 9.936 472.275 9.68C472.787 9.552 473.203 9.68 473.523 10.064C473.843 10.448 474.003 10.896 474.003 11.408C474.643 10.768 475.635 10.288 476.979 9.96799C478.323 9.64799 479.827 9.616 481.491 9.872C484.563 10.256 486.995 11.184 488.787 12.656C490.579 14.128 491.891 15.856 492.723 17.84C493.619 19.76 494.067 21.808 494.067 23.984C494.131 26.096 493.971 28.016 493.587 29.744ZM472.659 16.496C471.379 17.072 470.291 17.936 469.395 19.088C468.563 20.176 467.859 21.424 467.283 22.832C466.771 24.24 466.419 25.776 466.227 27.44C466.099 29.04 466.099 30.608 466.227 32.144C466.419 34.384 467.091 36.24 468.243 37.712C469.395 39.12 471.187 39.824 473.619 39.824C475.027 39.824 476.403 39.568 477.747 39.056C479.155 38.48 480.435 37.744 481.587 36.848C482.739 35.952 483.795 34.896 484.755 33.68C485.715 32.4 486.483 31.088 487.059 29.744C487.379 29.04 487.635 28.176 487.827 27.152C488.019 26.064 488.083 24.976 488.019 23.888C487.955 22.736 487.699 21.648 487.251 20.624C486.803 19.6 486.099 18.736 485.139 18.032C483.795 17.072 482.195 16.496 480.339 16.304C478.483 16.112 476.531 16.528 474.483 17.552C474.099 17.808 473.651 17.872 473.139 17.744C472.691 17.552 472.531 17.136 472.659 16.496ZM534.911 15.632C532.735 21.456 530.335 26.896 527.711 31.952C525.151 37.008 522.335 41.616 519.263 45.776C518.367 47.056 517.279 47.632 515.999 47.504C514.975 47.376 514.175 46.96 513.599 46.256C513.023 45.552 512.575 44.88 512.255 44.24C511.487 42.64 510.623 40.624 509.663 38.192C508.767 35.76 507.903 33.328 507.071 30.896C506.239 28.4 505.503 26.16 504.863 24.176C504.223 22.128 503.775 20.752 503.519 20.048C503.135 19.728 502.687 19.28 502.175 18.704C501.663 18.128 501.247 17.52 500.927 16.88C500.607 16.176 500.447 15.504 500.447 14.864C500.447 14.224 500.735 13.648 501.311 13.136C502.143 12.752 502.943 12.624 503.711 12.752C504.479 12.88 505.183 13.168 505.823 13.616C506.463 14.064 507.039 14.608 507.551 15.248C508.063 15.888 508.479 16.496 508.799 17.072C509.311 18.544 509.887 20.24 510.527 22.16C511.167 24.016 511.807 25.968 512.447 28.016C513.151 30 513.823 31.952 514.463 33.872C515.103 35.792 515.711 37.52 516.287 39.056C517.439 37.584 518.623 35.792 519.839 33.68C521.119 31.504 522.367 29.232 523.583 26.864C524.863 24.496 526.079 22.096 527.231 19.664C528.383 17.168 529.439 14.832 530.399 12.656C530.783 11.76 531.327 10.992 532.031 10.352C532.735 9.712 533.439 9.456 534.143 9.584C535.039 9.904 535.519 10.608 535.583 11.696C535.711 12.784 535.487 14.096 534.911 15.632ZM569.859 26.192C570.115 26.832 569.859 27.472 569.091 28.112C568.323 28.688 567.107 29.072 565.443 29.264C562.563 29.648 559.619 30.064 556.611 30.512C553.603 30.896 550.531 31.312 547.395 31.76C547.267 35.024 547.267 38.288 547.395 41.552C548.867 41.552 550.627 41.424 552.675 41.168C554.787 40.848 556.931 40.464 559.107 40.016C561.283 39.568 563.363 39.12 565.347 38.672C567.395 38.16 569.123 37.744 570.531 37.424C571.235 37.232 571.971 37.104 572.739 37.04C573.507 36.912 574.179 36.912 574.755 37.04C575.395 37.104 575.907 37.328 576.291 37.712C576.675 38.096 576.867 38.64 576.867 39.344C576.867 39.536 576.643 39.824 576.195 40.208C575.747 40.592 575.171 41.008 574.467 41.456C573.827 41.84 573.123 42.224 572.355 42.608C571.651 42.928 571.011 43.184 570.435 43.376C566.467 44.656 562.563 45.776 558.723 46.736C554.883 47.632 551.139 48.112 547.491 48.176C545.379 48.24 543.779 47.696 542.691 46.544C541.603 45.328 541.027 43.6 540.963 41.36C540.835 38.224 540.835 35.056 540.963 31.856C539.875 31.216 539.331 30.32 539.331 29.168C539.459 27.952 540.035 27.12 541.059 26.672C541.187 24.816 541.283 22.96 541.347 21.104C541.411 19.184 541.507 17.296 541.635 15.44C540.931 15.312 540.291 14.96 539.715 14.384C539.203 13.808 538.947 13.168 538.947 12.464C538.947 11.888 539.075 11.376 539.331 10.928C539.587 10.416 540.067 10.032 540.771 9.776C541.923 9.52 543.331 9.232 544.995 8.912C546.659 8.592 548.355 8.304 550.083 8.048C551.875 7.792 553.571 7.568 555.171 7.376C556.835 7.184 558.243 7.056 559.395 6.992C560.739 6.864 562.019 6.992 563.235 7.376C564.515 7.76 565.699 8.496 566.787 9.584C567.043 10.48 566.851 11.152 566.211 11.6C565.635 12.048 564.867 12.336 563.907 12.464C562.947 12.592 561.795 12.752 560.451 12.944C559.107 13.072 557.699 13.232 556.227 13.424C554.819 13.616 553.379 13.808 551.907 14C550.499 14.128 549.155 14.288 547.875 14.48C547.875 14.608 547.875 14.768 547.875 14.96C547.939 15.088 547.971 15.216 547.971 15.344C547.843 17.008 547.747 18.672 547.683 20.336C547.619 22 547.555 23.664 547.491 25.328C550.179 24.88 552.931 24.496 555.747 24.176C558.563 23.792 560.803 23.536 562.467 23.408C563.811 23.28 565.123 23.44 566.403 23.888C567.683 24.336 568.835 25.104 569.859 26.192ZM590.322 11.408C590.002 13.648 589.714 16.144 589.458 18.896C589.202 21.584 588.946 24.336 588.69 27.152C588.434 29.904 588.178 32.592 587.922 35.216C587.73 37.84 587.57 40.144 587.442 42.128C589.618 41.744 592.018 41.296 594.642 40.784C597.33 40.272 600.05 39.76 602.802 39.248C605.554 38.672 608.242 38.192 610.866 37.808C613.554 37.36 615.986 37.04 618.162 36.848C618.354 36.848 618.578 36.912 618.834 37.04C619.346 37.296 619.602 37.712 619.602 38.288C619.602 39.12 619.442 39.76 619.122 40.208C618.802 40.592 618.418 40.912 617.97 41.168C617.522 41.36 617.042 41.552 616.53 41.744C616.082 41.936 615.666 42.224 615.282 42.608C613.298 43.12 611.122 43.664 608.754 44.24C606.386 44.816 603.954 45.392 601.458 45.968C598.962 46.544 596.466 47.12 593.97 47.696C591.474 48.272 589.138 48.848 586.962 49.424C584.978 49.936 583.474 49.584 582.45 48.368C581.426 47.152 581.01 45.168 581.202 42.416C581.522 37.232 581.906 32.048 582.354 26.864C582.802 21.616 583.346 16.4 583.986 11.216C584.114 10.128 584.466 9.232 585.042 8.528C585.682 7.824 586.45 7.408 587.346 7.27999C588.818 7.088 589.682 7.472 589.938 8.432C590.258 9.328 590.386 10.32 590.322 11.408ZM634.335 41.84C634.399 42.096 634.431 42.48 634.431 42.992C634.431 43.44 634.335 43.92 634.143 44.432C633.951 44.88 633.663 45.296 633.279 45.68C632.959 46 632.479 46.16 631.839 46.16C630.431 45.264 629.247 44.08 628.287 42.608C627.775 40.688 627.295 38.48 626.847 35.984C626.463 33.488 626.143 30.896 625.887 28.208C625.631 25.456 625.439 22.672 625.311 19.856C625.247 17.04 625.247 14.32 625.311 11.696C625.311 11.248 625.343 10.672 625.407 9.96799C625.535 9.264 625.727 8.592 625.983 7.952C626.239 7.248 626.559 6.672 626.943 6.224C627.327 5.712 627.871 5.456 628.575 5.456C629.407 5.456 630.079 5.712 630.591 6.224C631.103 6.736 631.359 7.568 631.359 8.72C631.295 11.28 631.295 14.032 631.359 16.976C631.487 19.856 631.679 22.768 631.935 25.712C632.191 28.656 632.511 31.536 632.895 34.352C633.343 37.104 633.823 39.6 634.335 41.84ZM682.908 11.792C676.316 11.472 669.98 11.984 663.9 13.328C657.82 14.672 651.804 16.496 645.852 18.8C644.316 19.376 643.132 19.312 642.3 18.608C641.532 17.904 641.148 17.2 641.148 16.496C641.596 15.28 642.396 14.288 643.548 13.52C656.668 7.12 669.788 4.752 682.908 6.41599C683.548 6.608 684.06 7.088 684.444 7.856C684.892 8.56 685.052 9.168 684.924 9.68C684.796 10.32 684.604 10.864 684.348 11.312C684.092 11.696 683.612 11.856 682.908 11.792ZM669.276 45.296C669.276 46 669.02 46.64 668.508 47.216C668.06 47.728 667.484 48.048 666.78 48.176C665.5 48.368 664.668 48.144 664.284 47.504C663.9 46.864 663.676 46.128 663.612 45.296C663.548 40.816 663.452 36.368 663.324 31.952C663.26 27.472 663.068 22.992 662.748 18.512C662.748 18.256 662.716 17.968 662.652 17.648C662.588 17.264 662.588 16.912 662.652 16.592C662.716 16.208 662.844 15.888 663.036 15.632C663.292 15.376 663.676 15.184 664.188 15.056C665.66 14.8 666.716 15.056 667.356 15.824C667.996 16.528 668.316 17.232 668.316 17.936C668.828 22.544 669.148 27.12 669.276 31.664C669.404 36.208 669.404 40.752 669.276 45.296Z" fill="black"/>
</svg>
