<svg width="29" height="25" viewBox="0 0 29 25" fill="none" xmlns="http://www.w3.org/2000/svg">
<path d="M20.066 17.6671C21.293 16.9851 21.134 14.3571 19.712 11.7931C19.102 10.6891 18.352 9.7951 17.602 9.1701C16.7052 9.83568 15.6188 10.1966 14.502 10.2001C13.3835 10.1976 12.2952 9.83663 11.397 9.1701C10.647 9.7951 9.89898 10.6901 9.28699 11.7931C7.86399 14.3561 7.70699 16.9851 8.93699 17.6671C9.48499 17.9791 10.063 17.7451 10.659 17.1711C10.5474 17.7895 10.4915 18.4167 10.492 19.0451C10.492 21.9831 11.632 24.3571 13.035 24.3571C13.881 24.3571 14.3 23.4921 14.501 22.1691C14.701 23.4831 15.121 24.3571 15.961 24.3571C17.358 24.3571 18.507 21.9821 18.507 19.0451C18.507 18.3851 18.445 17.7551 18.339 17.1721C18.939 17.7471 19.515 17.9851 20.065 17.6691L20.066 17.6671ZM14.5 9.2001C15.0674 9.20857 15.6307 9.10412 16.1574 8.89281C16.684 8.6815 17.1633 8.36757 17.5674 7.96927C17.9716 7.57097 18.2925 7.09627 18.5115 6.57279C18.7304 6.04931 18.8431 5.48751 18.8429 4.92008C18.8427 4.35265 18.7296 3.79093 18.5103 3.2676C18.291 2.74427 17.9697 2.2698 17.5653 1.87178C17.1609 1.47377 16.6813 1.16017 16.1546 0.94923C15.6278 0.738292 15.0643 0.63423 14.497 0.643101C13.3736 0.660666 12.3022 1.11936 11.5141 1.92015C10.726 2.72093 10.2845 3.79954 10.2849 4.92308C10.2853 6.04661 10.7275 7.12492 11.5162 7.92515C12.3048 8.72538 13.3766 9.18332 14.5 9.2001ZM23.094 11.9141C24.0078 11.8874 24.8752 11.5056 25.5121 10.8498C26.149 10.194 26.5053 9.31579 26.5053 8.4016C26.5053 7.48741 26.149 6.6092 25.5121 5.95339C24.8752 5.29759 24.0078 4.91581 23.094 4.8891C22.1621 4.88923 21.2685 5.25953 20.6097 5.91854C19.9509 6.57754 19.5809 7.47126 19.581 8.4031C19.5811 9.33494 19.9514 10.2286 20.6104 10.8874C21.2694 11.5462 22.1631 11.9162 23.095 11.9161L23.094 11.9141ZM27.374 14.0441C26.872 13.1361 26.258 12.4021 25.642 11.8891C24.9051 12.4351 24.013 12.7311 23.096 12.7341C22.34 12.7341 21.636 12.5271 21.02 12.1841C21.516 13.2771 21.823 14.3841 21.88 15.3741C21.974 16.8901 21.5 18.0141 20.552 18.5391C20.3488 18.6507 20.1279 18.7265 19.899 18.7631C19.842 19.1551 19.803 19.5631 19.803 19.9931C19.803 22.4061 20.738 24.3551 21.891 24.3551C22.585 24.3551 22.931 23.6451 23.095 22.5591C23.258 23.6391 23.603 24.3551 24.295 24.3551C25.44 24.3551 26.385 22.4051 26.385 19.9951C26.385 19.4521 26.332 18.9351 26.245 18.4551C26.737 18.9281 27.211 19.1231 27.663 18.8631C28.67 18.3031 28.54 16.1451 27.373 14.0431L27.374 14.0441ZM5.90599 11.9141C6.60051 11.9137 7.27932 11.7074 7.8566 11.3212C8.43388 10.9351 8.88372 10.3865 9.14922 9.7447C9.41473 9.10293 9.484 8.39685 9.34826 7.71572C9.21252 7.03459 8.87788 6.409 8.38664 5.91804C7.8954 5.42707 7.26961 5.09279 6.58841 4.95744C5.9072 4.82209 5.20116 4.89175 4.55954 5.15763C3.91792 5.4235 3.36954 5.87364 2.98373 6.45115C2.59791 7.02865 2.39199 7.70758 2.39199 8.4021C2.39225 9.33399 2.76256 10.2276 3.4215 10.8866C4.08045 11.5455 4.9741 11.9158 5.90599 11.9161V11.9141ZM8.44099 18.5361C6.84899 17.6511 6.70298 15.0121 7.98498 12.1821C7.35131 12.5419 6.63565 12.7323 5.90699 12.7351C4.95099 12.7351 4.07499 12.4151 3.35699 11.8891C2.74199 12.4011 2.12899 13.1351 1.62499 14.0421C0.457985 16.1461 0.329985 18.3041 1.33799 18.8621C1.78799 19.1201 2.26299 18.9271 2.75199 18.4561C2.66217 18.9638 2.61699 19.4785 2.61699 19.9941C2.61699 22.4061 3.55199 24.3541 4.70499 24.3541C5.39898 24.3541 5.74499 23.6441 5.90899 22.5591C6.07399 23.6391 6.41899 24.3551 7.10899 24.3551C8.25599 24.3551 9.19899 22.4051 9.19899 19.9951C9.19899 19.5621 9.15899 19.1531 9.10199 18.7611C8.87054 18.7246 8.64721 18.6481 8.44199 18.5351L8.44099 18.5361Z" stroke="black"/>
</svg>
